<svg width="29" height="22" viewBox="0 0 29 22" fill="none" xmlns="http://www.w3.org/2000/svg">
<path d="M13.485 8.68933V11.5366H10.4219C10.2732 11.5366 10.15 11.6405 10.15 11.7713V13.1799C10.15 13.3073 10.2732 13.4146 10.4219 13.4146H13.485V16.2619C13.485 16.3927 13.601 16.5 13.7387 16.5H15.2612C15.4026 16.5 15.515 16.3927 15.515 16.2619V13.4146H18.5781C18.7267 13.4146 18.85 13.3073 18.85 13.1799V11.7713C18.85 11.6405 18.7267 11.5366 18.5781 11.5366H15.515V8.68933C15.515 8.55854 15.4026 8.45122 15.2612 8.45122H13.7387C13.601 8.45122 13.485 8.55854 13.485 8.68933ZM27.84 3.83659H14.8262L10.5741 0.0737804C10.52 0.0269223 10.4489 0.000587885 10.3748 0H1.16C0.518375 0 0 0.479573 0 1.07317V20.9268C0 21.5204 0.518375 22 1.16 22H27.84C28.4816 22 29 21.5204 29 20.9268V4.90976C29 4.31616 28.4816 3.83659 27.84 3.83659ZM26.39 19.5854H2.61V2.41463H9.44312L13.7786 6.25122H26.39V19.5854Z" fill="#CCCCCC"/>
</svg>
