<svg width="123" height="45" viewBox="0 0 123 45" fill="none" xmlns="http://www.w3.org/2000/svg">
<path d="M0 0H100.5C112.926 0 123 10.0736 123 22.5V22.5C123 34.9264 112.926 45 100.5 45H0V0Z" fill="#008081"/>
<path d="M54.0607 18.9393C53.4749 18.3536 52.5251 18.3536 51.9393 18.9393C51.3536 19.5251 51.3536 20.4749 51.9393 21.0607L54.0607 18.9393ZM58 25L56.9393 26.0607C57.5251 26.6464 58.4749 26.6464 59.0607 26.0607L58 25ZM64.0607 21.0607C64.6464 20.4749 64.6464 19.5251 64.0607 18.9393C63.4749 18.3536 62.5251 18.3536 61.9393 18.9393L64.0607 21.0607ZM51.9393 21.0607L56.9393 26.0607L59.0607 23.9393L54.0607 18.9393L51.9393 21.0607ZM59.0607 26.0607L64.0607 21.0607L61.9393 18.9393L56.9393 23.9393L59.0607 26.0607Z" fill="white"/>
</svg>
