<svg width="426" height="426" viewBox="0 0 426 426" fill="none" xmlns="http://www.w3.org/2000/svg">
<circle cx="206.344" cy="219.656" r="153.094" fill="white"/>
<path fill-rule="evenodd" clip-rule="evenodd" d="M213 0C95.3659 0 0 95.3659 0 213C0 330.634 95.3659 426 213 426C330.634 426 426 330.634 426 213C426 95.3659 330.634 0 213 0ZM305.326 176.984C307.026 175.04 308.32 172.777 309.132 170.326C309.945 167.875 310.259 165.286 310.056 162.712C309.853 160.138 309.137 157.631 307.951 155.338C306.765 153.044 305.132 151.011 303.148 149.358C301.165 147.705 298.871 146.466 296.401 145.713C293.931 144.959 291.336 144.708 288.768 144.972C286.199 145.237 283.71 146.012 281.446 147.253C279.181 148.494 277.188 150.176 275.583 152.198L192.32 252.095L149.236 208.992C145.584 205.464 140.692 203.513 135.615 203.557C130.538 203.601 125.681 205.637 122.091 209.228C118.501 212.818 116.465 217.674 116.42 222.752C116.376 227.829 118.328 232.72 121.855 236.372L179.946 294.463C181.849 296.364 184.127 297.848 186.635 298.821C189.143 299.793 191.826 300.232 194.513 300.11C197.2 299.988 199.832 299.308 202.242 298.112C204.651 296.916 206.785 295.232 208.508 293.165L305.326 176.984Z" fill="white"/>
<path fill-rule="evenodd" clip-rule="evenodd" d="M213 26.625C110.07 26.625 26.625 110.07 26.625 213C26.625 315.93 110.07 399.375 213 399.375C315.93 399.375 399.375 315.93 399.375 213C399.375 110.07 315.93 26.625 213 26.625ZM293.785 181.486C295.273 179.785 296.405 177.805 297.116 175.66C297.827 173.516 298.101 171.251 297.924 168.998C297.746 166.746 297.12 164.552 296.082 162.545C295.044 160.539 293.615 158.76 291.88 157.314C290.144 155.867 288.137 154.783 285.976 154.124C283.815 153.464 281.544 153.244 279.297 153.476C277.049 153.707 274.871 154.386 272.89 155.472C270.909 156.558 269.165 158.029 267.76 159.798L194.905 247.208L157.206 209.493C154.011 206.406 149.731 204.699 145.288 204.737C140.846 204.776 136.596 206.558 133.455 209.699C130.313 212.841 128.532 217.09 128.493 221.533C128.454 225.975 130.162 230.255 133.248 233.45L184.078 284.28C185.743 285.944 187.736 287.242 189.93 288.093C192.125 288.944 194.473 289.328 196.824 289.221C199.175 289.115 201.478 288.519 203.587 287.473C205.695 286.427 207.562 284.953 209.069 283.145L293.785 181.486Z" fill="url(#paint0_linear_859_30391)"/>
<defs>
<linearGradient id="paint0_linear_859_30391" x1="26.625" y1="232.969" x2="406.031" y2="232.969" gradientUnits="userSpaceOnUse">
<stop stop-color="#15AEB4"/>
<stop offset="1" stop-color="#058B85"/>
</linearGradient>
</defs>
</svg>
