<svg width="20" height="20" viewBox="0 0 20 20" fill="none" xmlns="http://www.w3.org/2000/svg">
<circle cx="10" cy="10" r="9" stroke="#008081" stroke-width="2"/>
<path fill-rule="evenodd" clip-rule="evenodd" d="M13.1561 7.85017C13.5466 7.45965 13.5466 6.82648 13.1561 6.43596C12.7656 6.04544 12.1324 6.04544 11.7419 6.43596L9.79593 8.38191L7.84998 6.43596C7.45945 6.04544 6.82629 6.04544 6.43577 6.43596C6.04524 6.82648 6.04524 7.45965 6.43577 7.85017L8.38172 9.79613L6.43576 11.7421C6.04524 12.1326 6.04524 12.7658 6.43576 13.1563C6.82629 13.5468 7.45945 13.5468 7.84997 13.1563L9.79593 11.2103L11.7419 13.1563C12.1324 13.5468 12.7656 13.5468 13.1561 13.1563C13.5466 12.7658 13.5466 12.1326 13.1561 11.7421L11.2101 9.79613L13.1561 7.85017Z" fill="#008081"/>
</svg>
